<?xml version="1.0" encoding="UTF-8"?>
<svg version="1.1" xmlns="http://www.w3.org/2000/svg" width="1200" height="1200">
<path d="M0 0 C2.3270525 0.00564225 4.65409771 0.00846142 6.9811554 0.0110817 C29.06896664 0.04724313 50.92500328 0.40185996 72.85481262 3.31805801 C74.22906864 3.4921332 75.60342076 3.66545105 76.9778595 3.83807755 C141.57488642 12.04411771 204.14383349 30.11001429 262.85481262 58.31805801 C263.90088684 58.81918106 264.94696106 59.32030411 266.0247345 59.8366127 C282.09850885 67.58388232 297.58768963 76.08909134 312.85481262 85.31805801 C313.76601868 85.86462051 314.67722473 86.41118301 315.61604309 86.97430801 C340.33147443 101.8294562 363.79717315 118.73782075 385.85481262 137.31805801 C386.8950018 138.18415414 387.93537711 139.05002674 388.97590637 139.91571426 C395.9603644 145.75076556 402.72991985 151.78033679 409.39729309 157.97381973 C410.80080506 159.26824803 412.22011145 160.54548655 413.63996887 161.82196426 C419.99129199 167.54427052 426.11197801 173.47055986 432.16731262 179.50555801 C432.92028625 180.25393936 433.67325989 181.00232071 434.4490509 181.77338028 C438.5489567 185.88462682 442.4775251 190.08574242 446.26667786 194.48480606 C448.52617133 197.09303612 450.8777472 199.60544273 453.22981262 202.13055801 C458.34481468 207.67465629 463.14205984 213.42711703 467.85481262 219.31805801 C468.76557281 220.43711615 469.67706739 221.55557689 470.58918762 222.67352676 C496.17990082 254.16251917 518.02765413 288.39822606 536.85481262 324.31805801 C537.37253235 325.30290176 537.89025208 326.28774551 538.42366028 327.30243301 C570.46835533 388.68491785 590.13441394 456.03945673 599.16731262 524.56805801 C599.31458801 525.68188858 599.4618634 526.79571915 599.61360168 527.94330215 C600.07938803 531.73040696 600.48326523 535.52080783 600.85481262 539.31805801 C600.94094818 540.18399582 601.02708374 541.04993362 601.11582947 541.94211197 C602.89775147 560.4510765 603.21861553 578.88825259 603.17287064 597.46324539 C603.16722839 599.79029789 603.16440921 602.11734311 603.16178894 604.44440079 C603.12562751 626.53221204 602.77101067 648.38824868 599.85481262 670.31805801 C599.68073744 671.69231403 599.50741958 673.06666615 599.33479309 674.44110489 C591.12875292 739.03813181 573.06285634 801.60707888 544.85481262 860.31805801 C544.35368958 861.36413223 543.85256653 862.41020645 543.33625793 863.48797989 C535.58898831 879.56175425 527.0837793 895.05093502 517.85481262 910.31805801 C517.30825012 911.22926407 516.76168762 912.14047012 516.19856262 913.07928848 C501.34341444 937.79471982 484.43504989 961.26041854 465.85481262 983.31805801 C464.9887165 984.35824719 464.12284389 985.39862251 463.25715637 986.43915176 C457.42075753 993.42522278 451.38965034 1000.19610098 445.19465637 1006.86493301 C443.91302971 1008.25491878 442.64908557 1009.66114637 441.38606262 1011.06805801 C435.49832789 1017.6099855 429.3809367 1023.89717202 423.16731262 1030.13055801 C422.37131653 1030.93114639 421.57532043 1031.73173477 420.75520325 1032.5565834 C416.5092488 1036.79150825 412.18514389 1040.86749801 407.63923645 1044.77875137 C405.22328333 1046.86283735 402.88582029 1049.02813802 400.54231262 1051.19305801 C395.13989805 1056.11377581 389.55312403 1060.74598355 383.85481262 1065.31805801 C382.73460746 1066.23031091 381.61483557 1067.14309604 380.49543762 1068.05633926 C349.00462708 1093.6428916 314.77384425 1115.49131901 278.85481262 1134.31805801 C277.86996887 1134.83577774 276.88512512 1135.35349747 275.87043762 1135.88690567 C214.48795278 1167.93160072 147.1334139 1187.59765933 78.60481262 1196.63055801 C77.49098206 1196.7778334 76.37715149 1196.9251088 75.22956848 1197.07684708 C71.44246436 1197.54263334 67.65205755 1197.94646609 63.85481262 1198.31805801 C62.98920715 1198.40419357 62.12360168 1198.49032913 61.23176575 1198.57907486 C43.43564498 1200.29307964 25.71419114 1200.6635885 7.85383606 1200.63373184 C4.86865592 1200.62911984 1.88388524 1200.63597473 -1.10124207 1200.65423965 C-28.79772074 1200.82178802 -56.22469677 1199.15319827 -83.64518738 1195.06805801 C-84.69958511 1194.91315903 -84.69958511 1194.91315903 -85.77528381 1194.75513077 C-110.45890719 1191.10613781 -134.5432997 1185.60257372 -158.6370697 1179.16461563 C-187.14981178 1171.5536783 -215.89466472 1165.33489625 -245.14518738 1161.31805801 C-246.30840515 1161.15434708 -247.47162292 1160.99063614 -248.67008972 1160.82196426 C-283.57270909 1156.09073117 -319.23877904 1157.23677454 -354.14518738 1161.31805801 C-355.4176532 1161.45727676 -356.69011902 1161.59649551 -358.00114441 1161.73993301 C-375.29748945 1163.65804906 -391.55296768 1167.10821429 -408.14518738 1172.31805801 C-409.25088074 1172.66481583 -410.3565741 1173.01157364 -411.49577332 1173.36883926 C-412.62531433 1173.72333145 -413.75485535 1174.07782364 -414.91862488 1174.44305801 C-450.6132516 1185.63916694 -486.64419093 1187.60839573 -521.14518738 1170.31805801 C-525.31331532 1167.86202175 -529.2474936 1165.18144758 -533.14518738 1162.31805801 C-533.98565613 1161.70188614 -534.82612488 1161.08571426 -535.69206238 1160.45087051 C-563.42011118 1139.16915153 -578.43070511 1111.51132034 -583.14518738 1077.31805801 C-583.32952332 1076.05864395 -583.51385925 1074.79922989 -583.70378113 1073.50165176 C-586.95115195 1046.64661966 -579.42732054 1024.92462026 -569.80143738 1000.31805801 C-561.25612135 978.33399987 -556.96121826 956.7227695 -554.14518738 933.31805801 C-553.98723694 932.01300308 -553.98723694 932.01300308 -553.82609558 930.6815834 C-550.78800172 902.01282571 -553.28244044 872.76536815 -557.14518738 844.31805801 C-557.26398254 843.42526138 -557.38277771 842.53246475 -557.50517273 841.61261368 C-560.35094412 820.27073106 -563.60381859 799.75753556 -570.75065613 779.38837051 C-582.92201308 744.45924278 -589.75170553 706.95583196 -594.14518738 670.31805801 C-594.29471863 669.17127579 -594.44424988 668.02449356 -594.59831238 666.84296036 C-600.19713066 622.66176824 -600.01312685 574.44496282 -594.14518738 530.31805801 C-593.97111219 528.943802 -593.79779434 527.56944988 -593.62516785 526.19501114 C-585.41912768 461.59798422 -567.3532311 399.02903715 -539.14518738 340.31805801 C-538.39350281 338.74894669 -538.39350281 338.74894669 -537.62663269 337.14813614 C-529.87936307 321.07436178 -521.37415405 305.58518101 -512.14518738 290.31805801 C-511.59862488 289.40685196 -511.05206238 288.4956459 -510.48893738 287.55682755 C-495.63378919 262.84139621 -478.72542464 239.37569749 -460.14518738 217.31805801 C-459.27909125 216.27786884 -458.41321865 215.23749352 -457.54753113 214.19696426 C-451.71247983 207.21250623 -445.6829086 200.44295079 -439.48942566 193.77557755 C-438.19499737 192.37206557 -436.91775884 190.95275919 -435.64128113 189.53290176 C-429.91897488 183.18157864 -423.99268553 177.06089262 -417.95768738 171.00555801 C-417.20930603 170.25258438 -416.46092468 169.49961075 -415.68986511 168.72381973 C-411.57861858 164.62391394 -407.37750297 160.69534554 -402.97843933 156.90619278 C-400.37020927 154.6466993 -397.85780266 152.29512343 -395.33268738 149.94305801 C-389.7885891 144.82805596 -384.03612836 140.0308108 -378.14518738 135.31805801 C-377.02612924 134.40729782 -375.9076685 133.49580325 -374.78971863 132.58368301 C-343.30072622 106.99296981 -309.06501933 85.14521651 -273.14518738 66.31805801 C-272.16034363 65.80033829 -271.17549988 65.28261856 -270.16081238 64.74921036 C-208.77832754 32.70451531 -141.42378866 13.0384567 -72.89518738 4.00555801 C-71.78135681 3.85828262 -70.66752625 3.71100723 -69.51994324 3.55926895 C-65.73283843 3.0934826 -61.94243756 2.68960541 -58.14518738 2.31805801 C-57.27924957 2.23192245 -56.41331177 2.1457869 -55.52113342 2.05704117 C-37.01216889 0.27511917 -18.5749928 -0.0457449 0 0 Z " fill="#0AC9D8" transform="translate(597.1451873779297,-0.3180580139160156)"/>
<path d="M0 0 C2.32567721 0.00315067 4.65006563 -0.02035554 6.97558594 -0.0456543 C40.96430421 -0.1877508 70.6883573 13.71089522 94.59277344 37.31567383 C114.38616063 57.07951865 126.54932938 82.76885313 133.40527344 109.62817383 C133.60024414 110.39105713 133.79521484 111.15394043 133.99609375 111.93994141 C134.58552866 114.3899427 135.10360908 116.84367143 135.59277344 119.31567383 C135.7811377 120.25765625 135.96950195 121.19963867 136.16357422 122.17016602 C138.01078798 132.95186268 137.89587512 143.73850627 137.85351562 154.64770508 C137.84277283 157.94086013 137.85347342 161.23347255 137.86621094 164.52661133 C137.8648895 166.65682084 137.86232745 168.78703003 137.85839844 170.91723633 C137.8624469 171.88319733 137.86649536 172.84915833 137.8706665 173.84439087 C137.82351971 180.83619995 136.8609718 187.44996546 135.59277344 194.31567383 C135.39473765 195.66349058 135.20365558 197.01236488 135.02246094 198.36254883 C132.2382108 216.95035961 125.8684582 234.98110576 116.59277344 251.31567383 C115.65498047 252.98436523 115.65498047 252.98436523 114.69824219 254.68676758 C95.09406255 287.94599699 64.12756154 310.52965538 26.82470703 320.29077148 C16.40884049 322.67363093 5.8493709 322.70343346 -4.78222656 322.75317383 C-5.54995392 322.75961914 -6.31768127 322.76606445 -7.1086731 322.77270508 C-17.30272622 322.82502769 -26.5020011 321.90950953 -36.40722656 319.31567383 C-37.14569824 319.13206299 -37.88416992 318.94845215 -38.64501953 318.75927734 C-44.55325267 317.24734026 -50.29183491 315.44464963 -55.90722656 313.06567383 C-59.59660847 311.54651657 -62.37237522 310.58206449 -66.40722656 311.31567383 C-70.82840359 313.65629696 -73.25148787 315.82382776 -75.40722656 320.31567383 C-75.85735719 323.76361543 -75.85735719 323.76361543 -75.79199219 327.57763672 C-75.79736496 328.29060913 -75.80273773 329.00358154 -75.80827332 329.73815918 C-75.81802843 331.28115703 -75.82100232 332.82420959 -75.81791687 334.36723518 C-75.8134182 336.82015448 -75.82750017 339.27235996 -75.84631348 341.72520447 C-75.88304596 346.94284927 -75.89677712 352.16041886 -75.90722656 357.37817383 C-75.91935889 363.40501325 -75.94124895 369.43150471 -75.98722839 375.45818901 C-76.00065225 377.85541399 -75.99665288 380.25218247 -75.99182129 382.64942932 C-76.04168433 397.04953128 -78.05805323 408.24950797 -87.96972656 419.12817383 C-97.85509252 427.9996561 -107.65581352 431.93838518 -121.03222656 431.69067383 C-131.2748372 430.55260598 -140.28519094 424.91897454 -147.15332031 417.40551758 C-156.1255947 406.15101878 -157.70844374 393.85093176 -157.67897034 379.85575867 C-157.6832634 378.5026347 -157.68842875 377.14951327 -157.69438499 375.7963956 C-157.70818514 372.09684586 -157.70974278 368.39737862 -157.70924175 364.69780695 C-157.71088479 360.69941893 -157.72402364 356.70106653 -157.73577881 352.70269775 C-157.75462251 345.77515995 -157.76634874 338.84763969 -157.77331734 331.92008018 C-157.78351867 321.87360553 -157.80560677 311.82718353 -157.83070325 301.7807363 C-157.87129124 285.43928455 -157.90374687 269.09782771 -157.93041992 252.75634766 C-157.93201722 251.77888837 -157.93361452 250.80142909 -157.93526023 249.79434983 C-157.93685913 248.81579613 -157.93845803 247.83724242 -157.94010538 246.82903558 C-157.96272046 233.00336949 -157.98736345 219.17770895 -158.0144043 205.35205078 C-158.01630044 204.38155105 -158.01819659 203.41105131 -158.02015019 202.41114249 C-158.05207685 186.15209666 -158.08784856 169.89306046 -158.12544578 153.63402683 C-158.14832362 143.63220885 -158.16733388 133.63039728 -158.18111252 123.62856255 C-158.19073987 116.75099884 -158.20362587 109.87344614 -158.21892137 102.99589273 C-158.22756987 99.04511504 -158.23473666 95.09435072 -158.23756218 91.14356422 C-158.25300608 71.20669666 -158.64553473 51.31318005 -159.53814709 31.39412153 C-159.57842805 30.48455973 -159.61870901 29.57499793 -159.66021061 28.63787365 C-159.69651807 27.84289414 -159.73282553 27.04791462 -159.77023321 26.22884482 C-160.10931882 16.09783297 -160.10931882 16.09783297 -156.84472656 11.87817383 C-150.19664662 5.55439047 -141.8484768 5.82250186 -133.24707031 5.77661133 C-131.98383438 5.76425446 -130.72059845 5.75189758 -129.41908264 5.73916626 C-126.75521787 5.71964142 -124.09230167 5.70714651 -121.4284668 5.70483398 C-118.02600956 5.69953722 -114.62592857 5.64808764 -111.22411251 5.58531761 C-107.96105861 5.53450831 -104.69796696 5.53382337 -101.43457031 5.52661133 C-100.21881821 5.49989349 -99.0030661 5.47317566 -97.75047302 5.44564819 C-89.50132411 5.51199729 -89.50132411 5.51199729 -86.3298645 7.84161377 C-84.80240545 9.5976661 -83.58599561 11.3136556 -82.40722656 13.31567383 C-80.56270927 15.88482292 -79.48405022 17.09784309 -76.36035156 17.72973633 C-68.85551762 18.18385048 -63.09660047 15.38397348 -56.40722656 12.31567383 C-37.89844665 4.47500975 -20.16208639 -0.05687174 0 0 Z " fill="#FEFEFE" transform="translate(332.4072265625,455.684326171875)"/>
<path d="M0 0 C2.16535367 0.01610836 4.32884214 0.00002809 6.49414062 -0.01904297 C19.3924865 -0.04014332 31.62037179 1.94210966 43.72851562 6.57861328 C44.52443115 6.87904541 45.32034668 7.17947754 46.14038086 7.48901367 C74.12109788 18.40770126 94.23961991 40.12246418 106.27099609 67.23291016 C111.22749719 79.18475676 114.19606188 91.63601711 116.16601562 104.39111328 C116.33904016 105.46838873 116.5120647 106.54566418 116.69033241 107.65558434 C117.16358187 111.37200104 117.30315494 114.93023519 117.31991577 118.67520142 C117.32429803 119.37438104 117.32868028 120.07356066 117.33319533 120.79392755 C117.3464677 123.11880622 117.35273587 125.44364709 117.35888672 127.76855469 C117.36679677 129.44305589 117.37506626 131.11755543 117.38366699 132.79205322 C117.40978065 138.27557776 117.42518302 143.75910953 117.43945312 149.24267578 C117.44481701 151.13657002 117.45019453 153.03046421 117.45558548 154.92435837 C117.47719771 162.80640567 117.49593189 170.68845101 117.50720787 178.5705204 C117.523434 189.83521826 117.55659846 201.09957059 117.61360872 212.36413825 C117.65240424 220.30242106 117.67185185 228.24061182 117.67712843 236.17898691 C117.68076843 240.91177574 117.69264548 245.64419512 117.72523117 250.37688065 C117.755482 254.83399629 117.76156359 259.29052218 117.74984741 263.74771881 C117.7496281 265.37419468 117.75781387 267.00069931 117.77550125 268.62707901 C117.92012908 282.70351282 115.27577113 294.9545778 105.16601562 305.39111328 C95.67828747 314.58634885 85.06005814 317.04347238 72.1809082 316.93212891 C62.22460088 316.54172454 54.04333108 313.22837236 46.84179688 306.25048828 C36.79194106 295.09959932 35.56496628 280.84944616 35.66772461 266.45996094 C35.66389029 264.91736835 35.65826183 263.37477936 35.65100098 261.8321991 C35.63914855 258.53928956 35.63946289 255.24669947 35.64959526 251.95378494 C35.66531298 246.73098795 35.65136978 241.50851122 35.63356018 236.28573608 C35.60288148 226.13604935 35.60123288 215.98646312 35.60321045 205.83673859 C35.60460736 192.92557589 35.59401093 180.01449096 35.55463272 167.10338438 C35.53983026 161.92775613 35.5398701 156.75241829 35.55211055 151.57678628 C35.55687068 148.33866849 35.54922676 145.10065851 35.53856659 141.86255836 C35.53619067 140.37926332 35.53878643 138.89594908 35.54717445 137.41267586 C35.64972703 118.09881755 32.32436521 99.65017904 19.56835938 84.49267578 C11.79403419 76.66709131 0.62330717 73.19602487 -10.18066406 72.83105469 C-18.04570292 72.82326752 -25.4695768 73.43337561 -32.83398438 76.39111328 C-33.65769531 76.71982422 -34.48140625 77.04853516 -35.33007812 77.38720703 C-50.13260929 84.06104714 -60.19619414 96.22618859 -66.05159664 111.19834614 C-69.15892543 119.90713359 -69.12280047 128.4008199 -69.10522461 137.54272461 C-69.10961867 139.061511 -69.11492328 140.58029498 -69.12106323 142.09907532 C-69.13251228 145.3548867 -69.13801889 148.61063344 -69.13894463 151.86646461 C-69.14089603 157.0246985 -69.159008 162.18279998 -69.17970276 167.34098816 C-69.22874626 180.15264238 -69.25973459 192.96433238 -69.28100586 205.77606201 C-69.29756873 215.73708606 -69.32049068 225.69799573 -69.36402661 235.65894336 C-69.38568751 240.77626731 -69.39387169 245.89337333 -69.39163387 251.01073992 C-69.39331204 254.20716892 -69.40743001 257.40345805 -69.42484665 260.59983635 C-69.43039995 262.07028298 -69.43097457 263.54075919 -69.42590904 265.01120758 C-69.37998122 279.91797958 -71.49391021 294.02315171 -82.08398438 305.20361328 C-91.53756329 314.0918619 -101.24769745 316.85251031 -114.11523438 316.63720703 C-125.44256341 315.88760437 -135.53704249 310.57801954 -143.29882812 302.32080078 C-147.80094323 296.66165355 -150.94720062 290.69134317 -150.96985626 283.38120365 C-150.97471401 282.58849255 -150.97957175 281.79578144 -150.9845767 280.97904879 C-150.98487269 280.11399751 -150.98516868 279.24894623 -150.98547363 278.35768127 C-150.98970604 277.43394697 -150.99393846 276.51021266 -150.99829912 275.5584864 C-151.01134086 272.45524908 -151.01735384 269.35203748 -151.0234375 266.2487793 C-151.03137955 264.02613162 -151.03976747 261.8034855 -151.04856873 259.58084106 C-151.06664305 254.78729771 -151.0816535 249.99375782 -151.09434509 245.20019722 C-151.11458485 237.60357108 -151.14224148 230.00698306 -151.17102051 222.41038513 C-151.21073775 211.74145297 -151.24767824 201.07251586 -151.28173828 190.40356445 C-151.28498249 189.38794407 -151.28498249 189.38794407 -151.28829223 188.3518061 C-151.30141506 184.23784494 -151.31445477 180.12388352 -151.32747364 176.00992203 C-151.34690893 169.87160444 -151.36647239 163.73328726 -151.38623047 157.5949707 C-151.38946877 156.58832426 -151.38946877 156.58832426 -151.3927725 155.56134153 C-151.42907735 144.31182767 -151.46909413 133.06232964 -151.51153326 121.81283706 C-151.53967734 114.28037318 -151.56334823 106.74791313 -151.58345795 99.2154237 C-151.59698445 94.49664756 -151.61438898 89.77789111 -151.63276863 85.05913162 C-151.64043071 82.89261443 -151.64654008 80.72609102 -151.65086174 78.55956459 C-151.67785199 65.52079151 -152.01269068 52.54176388 -152.72379971 39.52206695 C-152.96622937 34.83351657 -153.09285909 30.14761283 -153.14648438 25.45361328 C-153.17548828 24.54933594 -153.20449219 23.64505859 -153.234375 22.71337891 C-153.28790784 17.10066614 -152.73681754 13.74606341 -148.83398438 9.39111328 C-145.26725347 6.86686109 -142.80521749 6.00936795 -138.45214844 5.95532227 C-137.40045471 5.93618271 -136.34876099 5.91704315 -135.26519775 5.89732361 C-133.57448151 5.8923159 -133.57448151 5.8923159 -131.84960938 5.88720703 C-130.67944275 5.87722183 -129.50927612 5.86723663 -128.3036499 5.85694885 C-125.82909679 5.84177317 -123.35448241 5.83472289 -120.87988281 5.83520508 C-117.11093751 5.82866009 -113.34464937 5.77421154 -109.57617188 5.71728516 C-107.16732668 5.70847934 -104.75846902 5.70252764 -102.34960938 5.69970703 C-101.23056213 5.67815048 -100.11151489 5.65659393 -98.95855713 5.63438416 C-92.14830213 5.69344434 -88.05410209 6.7731007 -82.65570068 11.00526428 C-76.50431048 15.68486116 -65.12822167 14.07472221 -57.83398438 13.39111328 C-53.23017299 12.21452946 -49.14303806 10.36542377 -44.83398438 8.39111328 C-42.38864946 7.48041852 -39.92933262 6.60659371 -37.45898438 5.76611328 C-36.358125 5.38197266 -35.25726562 4.99783203 -34.12304688 4.60205078 C-22.75204806 1.18843878 -11.81281694 -0.10404243 0 0 Z " fill="#FEFEFE" transform="translate(927.833984375,455.60888671875)"/>
<path d="M0 0 C8.54626919 6.66214932 13.43484245 14.96468604 16.1875 25.375 C16.73820613 30.50330321 16.72085059 35.60861451 16.68197632 40.75979614 C16.68515801 42.2973057 16.69009065 43.83481244 16.69660914 45.37231147 C16.70936597 49.5716068 16.69735511 53.77051305 16.68108058 57.96978259 C16.66787125 62.50832977 16.67783548 67.0468354 16.68484497 71.58538818 C16.69490728 80.4657078 16.68367338 89.34587798 16.66514437 98.22617902 C16.64433629 108.57204254 16.6445178 118.91787408 16.64548953 129.26375459 C16.64648991 147.72453324 16.62819016 166.18524249 16.59912109 184.64599609 C16.57093982 202.55225895 16.55677998 220.45846075 16.55810547 238.36474609 C16.55822534 240.01952175 16.55822534 240.01952175 16.55834763 241.70772721 C16.55846869 243.35966648 16.55846869 243.35966648 16.5585922 245.04497826 C16.55997252 265.44331614 16.54818922 285.84162813 16.53028577 306.23995761 C16.52425808 313.44889394 16.52212725 320.6578255 16.52122116 327.86676407 C16.51985567 336.65229514 16.51090921 345.43778256 16.49255554 354.22329511 C16.48333394 358.70439136 16.47722327 363.18543186 16.47974396 367.66653824 C16.48194073 371.7708579 16.47485659 375.87505441 16.46044691 379.97934841 C16.45683319 381.4616689 16.45654701 382.94400215 16.45998149 384.42632307 C16.49009076 399.04332526 14.50718913 411.5101545 4.1953125 422.55859375 C-5.52048846 431.34818023 -16.99798583 434.28099844 -29.83984375 433.78515625 C-40.30979448 432.70418789 -49.77135954 427.32963571 -56.55859375 419.3125 C-64.05447895 408.84443089 -65.40392524 398.30169563 -65.34062195 385.75810242 C-65.34738969 384.19527903 -65.35588495 382.63246233 -65.36594516 381.06965667 C-65.38835758 376.80024643 -65.38603006 372.53116227 -65.37937582 368.26171172 C-65.37649176 363.64737307 -65.39657657 359.03312379 -65.41352844 354.41882324 C-65.44283586 345.38846734 -65.4501794 336.35822324 -65.44895294 327.32782467 C-65.44811946 319.98503845 -65.45399305 312.64228747 -65.46457863 305.29950905 C-65.49724071 282.1940571 -65.50624602 259.08871374 -65.49748889 235.98324207 C-65.49150766 217.77384888 -65.52190317 199.56472497 -65.56911161 181.35539892 C-65.61725288 162.63969558 -65.6392829 143.92412183 -65.6338008 125.20835525 C-65.63122758 114.70821876 -65.63915217 104.20834024 -65.67487144 93.70825768 C-65.70504239 84.76905578 -65.71070721 75.83024614 -65.68506243 66.89102324 C-65.67267013 62.3341217 -65.67134028 57.77795679 -65.70077133 53.22111702 C-65.72747272 49.04149363 -65.72127826 44.8632 -65.68994138 40.68362067 C-65.68425089 39.17966943 -65.6901308 37.6756152 -65.7093974 36.17177662 C-65.86523512 23.11576157 -62.44894517 13.22007024 -53.625 3.375 C-38.36399736 -10.65569882 -16.95449181 -11.41078877 0 0 Z " fill="#FEFEFE" transform="translate(569.8125,338.625)"/>
<path d="M0 0 C6.23553044 4.18766857 10.66867322 8.57692515 14.1015625 15.26953125 C14.42676485 15.88063616 14.75196719 16.49174106 15.08702415 17.1213643 C18.05192126 23.12318573 18.67475664 28.08713375 18.6162262 34.72407532 C18.62317172 35.74010289 18.63011725 36.75613046 18.63727325 37.80294675 C18.65548672 41.18827549 18.64529428 44.57289897 18.63500977 47.95825195 C18.64207114 50.39328534 18.65081707 52.82831434 18.66111755 55.26333618 C18.68126604 61.17978175 18.68264442 67.09604983 18.67449201 73.0125076 C18.66817795 77.82485187 18.6693419 82.63714016 18.67576408 87.44948387 C18.67666574 88.13586474 18.67756739 88.8222456 18.67849637 89.52942589 C18.68034769 90.92407632 18.68221025 92.31872674 18.68408393 93.71337714 C18.70064416 106.77734879 18.69195911 119.8412123 18.67509835 132.90517744 C18.66041035 144.83703441 18.67502015 156.76863936 18.70386852 168.70046387 C18.73331743 180.97276885 18.74421836 193.24495775 18.73468632 205.51729649 C18.73366384 206.90757475 18.73266923 208.29785303 18.7317028 209.68813133 C18.73098822 210.71401136 18.73098822 210.71401136 18.7302592 211.76061625 C18.7281019 216.56114697 18.73786275 221.36156695 18.75247383 226.16207314 C18.77190383 232.63581141 18.76482462 239.1091968 18.74027443 245.58292007 C18.73527847 247.95318178 18.73872449 250.32347928 18.75142288 252.69371223 C18.83140415 268.91099876 18.3394476 280.87436196 6.48828125 293.078125 C-3.72041246 302.45141006 -14.11695235 305.07510133 -27.69921875 304.6171875 C-38.93427057 303.90816704 -47.53693921 299.06651327 -55.1484375 291.01953125 C-62.5020575 281.96275676 -63.04778951 271.1828204 -63.04560852 260.03530884 C-63.04928521 259.01887342 -63.0529619 258.002438 -63.05675 256.95520151 C-63.06774358 253.55688046 -63.07162326 250.15859004 -63.07543945 246.76025391 C-63.08170716 244.3206523 -63.08835423 241.88105165 -63.09535217 239.44145203 C-63.11453879 232.12947455 -63.12517175 224.81749964 -63.13407996 217.50550467 C-63.13847091 214.05784139 -63.14383538 210.61017963 -63.14906883 207.16251755 C-63.16606993 195.6964201 -63.18056503 184.23032358 -63.18781757 172.76421547 C-63.18972727 169.79333113 -63.19164764 166.82244681 -63.19360352 163.8515625 C-63.19408726 163.11321873 -63.194571 162.37487495 -63.1950694 161.61415713 C-63.20337359 149.64786069 -63.22872206 137.68166409 -63.26118419 125.71541126 C-63.29427391 113.41721924 -63.31226781 101.11907796 -63.31546181 88.82084119 C-63.31762446 81.92080758 -63.32633782 75.02091984 -63.35192299 68.12092972 C-63.37593067 61.63170416 -63.37944376 55.14266979 -63.36916161 48.65340614 C-63.36866579 46.273812 -63.37499975 43.894205 -63.38871765 41.51465034 C-63.40641787 38.26202614 -63.39933889 35.01034601 -63.38618469 31.75772095 C-63.39715394 30.81986523 -63.40812318 29.88200952 -63.41942483 28.91573393 C-63.33013569 19.74875297 -60.10474201 12.77435326 -53.87109375 6.1171875 C-39.06644663 -7.74934337 -17.43196225 -10.40749228 0 0 Z " fill="#FEFEFE" transform="translate(703.8984375,467.73046875)"/>
<path d="M0 0 C2.49415477 2.18474374 4.83208303 4.44915911 7.14453125 6.82421875 C7.75554687 7.40300781 8.3665625 7.98179687 8.99609375 8.578125 C29.05228646 29.04643126 30.53936865 59.4715705 30.37486267 86.28926086 C30.11970674 111.05475888 22.96515566 136.05143939 5.1484375 154.0625 C-8.05478889 166.63473751 -23.97560765 170.56997962 -41.62841797 170.2734375 C-58.00637187 169.68392941 -72.69653933 163.88510619 -84.578125 152.359375 C-98.24677502 137.14333063 -103.15983071 120.32748736 -103.2265625 100.140625 C-103.23555828 98.71687238 -103.2446805 97.29312056 -103.25392151 95.86936951 C-103.27033708 92.89148689 -103.27809679 89.91371559 -103.28100586 86.93579102 C-103.28529488 83.91882912 -103.30602686 80.9027285 -103.3425293 77.88598633 C-103.65290955 51.7672585 -101.8602166 29.42424557 -83.85546875 8.82421875 C-83.05882812 7.90382813 -83.05882812 7.90382813 -82.24609375 6.96484375 C-60.9156885 -15.99073524 -24.85050437 -18.93533644 0 0 Z " fill="#0DC3DB" transform="translate(358.85546875,538.17578125)"/>
<path d="M0 0 C7.86757643 6.47102831 14.29507909 15.66548233 16.0703125 25.93359375 C17.19872938 38.29781871 14.75999574 49.44625994 6.7265625 59.16015625 C-2.08372738 68.5938157 -12.19960029 73.75071035 -25.1796875 74.30859375 C-36.45647517 74.02823163 -45.59696933 69.33445202 -53.9296875 61.93359375 C-63.15091964 52.04137799 -65.50857153 41.74712168 -65.2734375 28.56640625 C-64.82232141 19.33732288 -60.42878093 10.47498063 -53.9296875 3.93359375 C-38.03308951 -8.92890642 -17.38356577 -12.26120839 0 0 Z " fill="#FA71C7" transform="translate(707.9296875,373.06640625)"/>
</svg>
